<svg xmlns="http://www.w3.org/2000/svg" version="1.1" viewBox="0 0 32 40" x="0px" y="0px"><title>next-1</title><path d="M16 0.6c-8.498 0-15.4 6.903-15.4 15.4s6.903 15.4 15.4 15.4c8.498 0 15.4-6.903 15.4-15.4s-6.903-15.4-15.4-15.4zM16 1.641c7.914 0 14.359 6.445 14.359 14.359s-6.445 14.359-14.359 14.359c-7.914 0-14.359-6.445-14.359-14.359s6.445-14.359 14.359-14.359zM14.24 10.771c-0.133 0-0.267 0.050-0.371 0.154-0.209 0.209-0.209 0.53 0 0.738l4.342 4.342-4.342 4.342c-0.208 0.208-0.207 0.53 0 0.738 0.1 0.1 0.235 0.152 0.367 0.152 0.133 0 0.265-0.051 0.363-0.15h0.002l4.705-4.707c0.224-0.228 0.218-0.537 0.010-0.746l-0.174-0.176v-0.002l-4.533-4.531c-0.106-0.106-0.237-0.154-0.369-0.154z"/><text x="0" y="47" fill="#000000" font-size="5px" font-weight="bold" font-family="'Helvetica Neue', Helvetica, Arial-Unicode, Arial, Sans-serif">Created by vectlab</text><text x="0" y="52" fill="#000000" font-size="5px" font-weight="bold" font-family="'Helvetica Neue', Helvetica, Arial-Unicode, Arial, Sans-serif">from the Noun Project</text></svg>